<?xml version="1.0" standalone="no"?>
<!DOCTYPE svg PUBLIC "-//W3C//DTD SVG 20010904//EN"
 "http://www.w3.org/TR/2001/REC-SVG-20010904/DTD/svg10.dtd">
<svg version="1.0" xmlns="http://www.w3.org/2000/svg"
 width="1229.000000pt" height="1280.000000pt" viewBox="0 0 1229.000000 1280.000000"
 preserveAspectRatio="xMidYMid meet">
<g transform="translate(0.000000,1280.000000) scale(0.100000,-0.100000)"
fill="#000000" stroke="none">
<path d="M11775 12795 c-5 -2 -98 -11 -205 -20 -438 -36 -651 -74 -901 -161
-278 -96 -626 -296 -1009 -580 -193 -144 -252 -201 -294 -287 -50 -101 -142
-225 -355 -481 -588 -705 -1531 -1947 -2621 -3456 -874 -1210 -1386 -1956
-1607 -2345 -117 -206 -171 -290 -274 -427 -101 -135 -361 -525 -629 -943
-198 -309 -287 -441 -413 -610 -176 -236 -334 -409 -397 -435 -30 -12 -37 -11
-77 10 -107 57 -232 257 -376 601 -215 515 -512 1145 -607 1287 -55 82 -129
146 -193 169 -44 15 -84 18 -257 18 -190 0 -213 -2 -312 -27 -395 -101 -850
-369 -1084 -639 -132 -153 -186 -320 -154 -476 5 -26 21 -111 35 -188 86 -471
572 -2091 799 -2662 125 -315 207 -477 408 -800 l120 -193 62 -19 c151 -46
472 -100 736 -122 126 -11 170 -10 335 5 446 42 729 118 832 224 103 106 388
499 730 1007 540 800 743 1092 847 1218 31 38 88 124 128 190 39 67 103 176
141 242 441 749 3433 4909 3932 5465 75 83 170 212 383 520 166 240 294 408
401 522 140 151 342 402 731 903 327 422 581 737 739 920 241 277 405 491 600
783 188 281 250 393 296 529 31 90 29 115 -11 163 -37 44 -71 59 -187 81 -89
17 -262 25 -292 14z"/>
</g>
</svg>
